<?xml version="1.0" encoding="UTF-8" standalone="no"?>
<svg
   xmlns:x="adobe:ns:meta/"
   xmlns:dc="http://purl.org/dc/elements/1.1/"
   xmlns:cc="http://creativecommons.org/ns#"
   xmlns:rdf="http://www.w3.org/1999/02/22-rdf-syntax-ns#"
   xmlns:svg="http://www.w3.org/2000/svg"
   xmlns="http://www.w3.org/2000/svg"
   xmlns:sodipodi="http://sodipodi.sourceforge.net/DTD/sodipodi-0.dtd"
   xmlns:inkscape="http://www.inkscape.org/namespaces/inkscape"
   width="137"
   height="28"
   viewBox="0 0 137 28"
   version="1.1"
   id="svg16"
   sodipodi:docname="logo.svg"
   inkscape:version="0.92.4 (5da689c313, 2019-01-14)">
  <sodipodi:namedview
     pagecolor="#ffffff"
     bordercolor="#666666"
     borderopacity="1"
     objecttolerance="10"
     gridtolerance="10"
     guidetolerance="10"
     inkscape:pageopacity="0"
     inkscape:pageshadow="2"
     inkscape:window-width="1366"
     inkscape:window-height="715"
     id="namedview18"
     showgrid="false"
     inkscape:zoom="2.7737226"
     inkscape:cx="68.5"
     inkscape:cy="14"
     inkscape:window-x="-8"
     inkscape:window-y="-8"
     inkscape:window-maximized="1"
     inkscape:current-layer="svg16" />
  <metadata
     id="metadata2">
<?xpacket begin="ÿ" id="W5M0MpCehiHzreSzNTczkc9d"?>    <x:xmpmeta
       x:xmptk="Adobe XMP Core 5.6-c138 79.159824, 2016/09/14-01:09:01        ">
      <metadata>
        <rdf:RDF>
          <rdf:Description
             rdf:about="" />
          <cc:Work
             rdf:about="">
            <dc:format>image/svg+xml</dc:format>
            <dc:type
               rdf:resource="http://purl.org/dc/dcmitype/StillImage" />
          </cc:Work>
        </rdf:RDF>
      </metadata>
    </x:xmpmeta>
<?xpacket end="w"?>  </metadata>
  <defs
     id="defs6">
    <style
       id="style4">
      .cls-1 {
        font-size: 28px;
        text-anchor: middle;
        fill: #fefefe;
        font-family: RobotoSlab;
        font-weight: 700;
      }

      .cls-2, .cls-3 {
        fill: #65e496;
      }

      .cls-3, .cls-4 {
        fill-rule: evenodd;
      }

      .cls-4 {
        fill: #44444f;
      }
    </style>
  </defs>
  <g
     aria-label="BUKEE"
     style="font-style:normal;font-variant:normal;font-weight:bold;font-stretch:normal;font-size:28px;font-family:'Roboto Slab';-inkscape-font-specification:'Roboto Slab Bold';text-anchor:middle;fill:#fefefe"
     id="BUKEE">
    <path
       d="m 49.869141,3.09375 q 3.513671,0 5.482421,1.3671875 1.96875,1.3671875 1.96875,4.0878906 0,1.3808594 -0.738281,2.4746099 -0.724609,1.080078 -2.11914,1.626953 1.791015,0.382812 2.679687,1.640625 0.902344,1.257812 0.902344,2.912109 0,2.857422 -1.886719,4.333984 Q 54.271484,23 50.8125,23 h -9.789063 v -2.392578 l 2.119141,-0.410156 V 5.9101562 L 41.023437,5.5 V 3.09375 h 2.119141 z M 47.134766,14.195313 V 19.9375 H 50.8125 q 1.585937,0 2.419922,-0.683594 0.833984,-0.697265 0.833984,-2.050781 0,-1.462891 -0.710937,-2.228516 -0.710938,-0.779296 -2.242188,-0.779296 z m 0,-2.761719 h 2.871093 q 1.59961,0 2.460938,-0.65625 0.861328,-0.65625 0.861328,-1.9140627 0,-1.3808594 -0.875,-2.0371094 -0.861328,-0.65625 -2.583984,-0.65625 h -2.734375 z"
       style="font-style:normal;font-variant:normal;font-weight:bold;font-stretch:normal;font-family:'Roboto Slab';-inkscape-font-specification:'Roboto Slab Bold'"
       id="path4531" />
    <path
       d="M 67.574219,3.09375 V 5.5 L 65.441406,5.9101562 V 16.300781 q 0,1.96875 1.052735,2.953125 1.066406,0.970703 2.912109,0.970703 1.873047,0 2.939453,-0.970703 1.066406,-0.970703 1.066406,-2.953125 V 5.9101562 L 71.292969,5.5 V 3.09375 h 8.24414 V 5.5 L 77.404297,5.9101562 V 16.300781 q 0,3.34961 -2.214844,5.167969 -2.201172,1.818359 -5.783203,1.818359 -3.568359,0 -5.769531,-1.818359 -2.1875,-1.818359 -2.1875,-5.167969 V 5.9101562 L 59.330078,5.5 V 3.09375 h 2.119141 3.992187 z"
       style="font-style:normal;font-variant:normal;font-weight:bold;font-stretch:normal;font-family:'Roboto Slab';-inkscape-font-specification:'Roboto Slab Bold'"
       id="path4533" />
    <path
       d="m 80.726562,20.607422 2.119141,-0.410156 V 5.9101562 L 80.726562,5.5 V 3.09375 h 8.134766 V 5.5 l -2.023437,0.4101562 v 5.3183598 h 1.736328 L 92.402344,5.6640625 91.226562,5.5 V 3.09375 h 7.888672 V 5.5 l -2.160156,0.3691406 -4.894531,6.5351564 5.496094,7.861328 1.996093,0.341797 V 23 H 91.664062 V 20.607422 L 92.894531,20.443359 89.066406,14.6875 h -2.228515 v 5.509766 l 2.023437,0.410156 V 23 h -8.134766 z"
       style="font-style:normal;font-variant:normal;font-weight:bold;font-stretch:normal;font-family:'Roboto Slab';-inkscape-font-specification:'Roboto Slab Bold'"
       id="path4535" />
    <path
       d="m 113.59375,14.25 h -6.74023 v 5.6875 h 6.42578 l 0.17773,-2.378906 h 3.03516 V 23 h -15.75 v -2.392578 l 2.11914,-0.410156 V 5.9101562 L 100.74219,5.5 V 3.09375 h 2.11914 13.60351 v 5.4550781 h -3.0625 l -0.17773,-2.3789062 h -6.37109 v 5.0039061 h 6.74023 z"
       style="font-style:normal;font-variant:normal;font-weight:bold;font-stretch:normal;font-family:'Roboto Slab';-inkscape-font-specification:'Roboto Slab Bold';fill:#65e496"
       id="path4537" />
    <path
       d="m 131.47656,14.25 h -6.74023 v 5.6875 h 6.42578 l 0.17773,-2.378906 H 134.375 V 23 h -15.75 v -2.392578 l 2.11914,-0.410156 V 5.9101562 L 118.625,5.5 V 3.09375 h 2.11914 13.60352 v 5.4550781 h -3.0625 l -0.17774,-2.3789062 h -6.37109 v 5.0039061 h 6.74023 z"
       style="font-style:normal;font-variant:normal;font-weight:bold;font-stretch:normal;font-family:'Roboto Slab';-inkscape-font-specification:'Roboto Slab Bold';fill:#65e496"
       id="path4539" />
  </g>
  <path
     id="Rectangle_10_copy_3"
     data-name="Rectangle 10 copy 3"
     class="cls-3"
     d="M28,28L0,0H28V28Z" />
  <path
     class="cls-4"
     d="M28,0L0,28V0H28Z"
     id="path14" />
</svg>
